<?xml version="1.0" encoding="UTF-8"?>
<svg width="77px" height="89px" viewBox="0 0 77 89" version="1.1" xmlns="http://www.w3.org/2000/svg" xmlns:xlink="http://www.w3.org/1999/xlink">
    <!-- Generator: Sketch 60 (88103) - https://sketch.com -->
    <title>drupal</title>
    <desc>Created with Sketch.</desc>
    <g id="Symbols" stroke="none" stroke-width="1" fill="none" fill-rule="evenodd">
        <g id="Icons/CMS" transform="translate(-350.000000, -91.000000)">
            <g id="drupal" transform="translate(350.000000, 91.000000)">
                <path d="M25.4372368,14.2713531 C9.99266656,20.8313285 0.272834252,33.6957772 0.272834252,50.2251101 C0.272834252,71.3498923 17.3980396,88.4753966 38.5237182,88.4753966 C59.6485005,88.4753966 76.7740048,71.3498923 76.7740048,50.2251101 C76.7740048,24.8261239 53.1748878,14.7291648 53.1748878,14.7291648 C53.1748878,14.7291648 48.0203224,12.5886262 45.1383801,10.667132 C45.1383801,10.667132 41.4971035,8.44202368 35.1507935,0.249824135 C35.1507935,0.249824135 35.2945322,9.55756613 25.4372368,14.2716519" id="Path" fill="#136DA9" fill-rule="nonzero"></path>
                <path d="M34.6959704,81.0715175 C33.3524185,80.1376655 33.6718705,77.1648778 37.3125495,79.2886817 C37.3125495,79.2886817 45.0642696,84.9820423 57.3379259,78.1513246 C58.2920987,77.6202988 59.4617301,79.493681 56.4276817,81.2113712 C56.4276817,81.2113712 44.0258258,87.5567849 34.6959704,81.0715175 L34.6959704,81.0715175 Z" id="Path" fill="#F0F0F0" fill-rule="nonzero"></path>
                <path d="M34.6959704,81.0715175 C33.3524185,80.1376655 33.6718705,77.1648778 37.3125495,79.2886817 C37.3125495,79.2886817 45.0642696,84.9820423 57.3379259,78.1513246 C58.2920987,77.6202988 59.4617301,79.493681 56.4276817,81.2113712 C56.4276817,81.2113712 44.0258258,87.5567849 34.6959704,81.0715175 L34.6959704,81.0715175 Z" id="Path" stroke="#FFFDFF" stroke-width="0.5"></path>
                <path d="M50.5110932,71.6281054 C55.0243633,72.1567406 53.472525,74.3268636 54.6833953,74.6615562 C57.1481672,75.3446877 56.0864146,72.6516077 56.0864146,72.6516077 C54.265627,69.0109287 51.1180223,69.2386393 51.1180223,69.2386393 C46.1875815,68.4799032 42.5086523,73.182932 42.5086523,73.182932 C41.5984079,75.192582 42.8720327,75.2959782 43.3429931,75.0793245 C45.7321605,73.9790225 47.1856828,71.23783 50.5110932,71.6281054 L50.5110932,71.6281054 Z" id="Path" fill="#F0F0F0" fill-rule="nonzero"></path>
                <path d="M50.5110932,71.6281054 C55.0243633,72.1567406 53.472525,74.3268636 54.6833953,74.6615562 C57.1481672,75.3446877 56.0864146,72.6516077 56.0864146,72.6516077 C54.265627,69.0109287 51.1180223,69.2386393 51.1180223,69.2386393 C46.1875815,68.4799032 42.5086523,73.182932 42.5086523,73.182932 C41.5984079,75.192582 42.8720327,75.2959782 43.3429931,75.0793245 C45.7321605,73.9790225 47.1856828,71.23783 50.5110932,71.6281054 L50.5110932,71.6281054 Z" id="Path" stroke="#FFFDFF" stroke-width="0.5"></path>
                <path d="M5.27917842,69.459178 C5.27917842,69.459178 18.994105,80.8061543 52.3695336,55.5269998 C52.3695336,55.5269998 69.1331514,45.0033075 68.6281242,26.9597894 C68.6281242,26.9597894 63.2034142,19.1635432 54.0498699,15.1430481 C52.747557,14.5707835 41.3097355,8.32936374 35.1325649,0.502636595 C35.1325649,0.502636595 34.0131377,23.2082437 4.931636,32.172328 C4.931636,32.172328 -2.3963394,42.9808079 1.59845609,60.5473893 C1.59845609,60.5473893 4.1555675,67.6697676 5.27917842,69.459178" id="Path" fill="#008ECE" fill-rule="nonzero"></path>
                <path d="M27.0344976,73.676006 C27.0344976,73.676006 15.6564427,73.9790225 17.0221081,61.8425302 C17.0221081,61.8425302 19.3987245,48.1888642 35.3782052,51.2232113 C35.3782052,51.2232113 38.8679736,51.9816489 45.3911925,56.987993 C45.3911925,56.987993 49.6958774,60.3065301 52.0659195,60.244074 C52.0659195,60.244074 53.9055336,60.4203852 57.7299944,57.9995417 C57.7299944,57.9995417 65.5298267,51.9807522 68.256675,52.1591553 C68.3245101,52.1636379 73.7600517,51.5647772 73.7600517,60.3256554 C73.7600517,60.3256554 73.8609833,69.9845257 66.579626,73.220585 C66.579626,73.220585 64.6578329,73.878017 62.5842328,71.7037102 C62.5842328,71.7037102 56.6171416,64.9273799 53.6840985,63.8148259 C53.6840985,63.8148259 51.990315,63.1511185 49.7398058,63.9666328 C49.7398058,63.9666328 48.2734339,64.11844 42.2561387,68.1132354 C42.2561387,68.1132354 32.1418471,74.4341445 27.0344976,73.676006 L27.0344976,73.676006 Z" id="Path" fill="#F0F0F0" fill-rule="nonzero"></path>
                <path d="M27.0344976,73.676006 C27.0344976,73.676006 15.6564427,73.9790225 17.0221081,61.8425302 C17.0221081,61.8425302 19.3987245,48.1888642 35.3782052,51.2232113 C35.3782052,51.2232113 38.8679736,51.9816489 45.3911925,56.987993 C45.3911925,56.987993 49.6958774,60.3065301 52.0659195,60.244074 C52.0659195,60.244074 53.9055336,60.4203852 57.7299944,57.9995417 C57.7299944,57.9995417 65.5298267,51.9807522 68.256675,52.1591553 C68.3245101,52.1636379 73.7600517,51.5647772 73.7600517,60.3256554 C73.7600517,60.3256554 73.8609833,69.9845257 66.579626,73.220585 C66.579626,73.220585 64.6578329,73.878017 62.5842328,71.7037102 C62.5842328,71.7037102 56.6171416,64.9273799 53.6840985,63.8148259 C53.6840985,63.8148259 51.990315,63.1511185 49.7398058,63.9666328 C49.7398058,63.9666328 48.2734339,64.11844 42.2561387,68.1132354 C42.2561387,68.1132354 32.1418471,74.4341445 27.0344976,73.676006 L27.0344976,73.676006 Z" id="Path" stroke="#FFFDFF" stroke-width="0.5"></path>
                <path d="M33.0520915,30.1360821 C40.4186164,19.5848973 35.1325649,0.199321409 35.1325649,0.199321409 C34.4826038,10.7173358 25.6084679,14.1882776 25.6084679,14.1882776 C9.71953347,21.0461892 4.931636,31.8687142 4.931636,31.8687142 C8.33653575,36.6972528 17.3756272,52.5882792 33.0520915,30.1360821" id="Path" fill="#008ECE" fill-rule="nonzero"></path>
                <path d="M35.1325649,0.199321409 C35.1325649,0.199321409 36.0861398,9.04895289 31.2821055,11.9311942 C31.2821055,11.9311942 23.5778998,15.5174854 21.2260865,16.6930933 C21.2260865,16.6930933 11.3326324,22.6646671 8.07147113,28.2773427 C8.07147113,28.2773427 1.09253234,37.6158645 10.7263008,35.4080885 C10.7263008,35.4080885 28.1473505,30.4899 35.2269959,15.6480753 C35.2269959,15.6480753 35.6438675,14.396564 34.3161539,13.1071009 C34.3161539,13.1071009 39.6264109,9.09945561 35.1325649,0.199321409" id="Path" fill="#A0D8F1" fill-rule="nonzero"></path>
                <path d="M35.1325649,0.199321409 C35.1325649,0.199321409 35.5300124,6.24231619 30.5132091,11.249258 C30.5132091,11.249258 29.0067934,13.3724644 21.2260865,16.6930933 C21.2260865,16.6930933 12.3190791,21.3369534 8.32577775,27.7776945 C8.32577775,27.7776945 2.40769504,34.9165088 10.5227957,33.0024853 C10.5227957,33.0024853 26.9654672,26.9427559 32.9905321,15.8154216 C32.9905321,15.8154216 33.8054488,14.6460893 32.5649944,13.4411959 C32.5649944,13.4411959 38.4639516,8.83409219 35.1325649,0.199321409" id="Path" fill="#F0F0F0" fill-rule="nonzero"></path>
            </g>
        </g>
    </g>
</svg>