<?xml version="1.0" encoding="UTF-8"?>
<svg width="77px" height="88px" viewBox="0 0 77 88" version="1.1" xmlns="http://www.w3.org/2000/svg" xmlns:xlink="http://www.w3.org/1999/xlink">
    <!-- Generator: Sketch 60 (88103) - https://sketch.com -->
    <title>shopify</title>
    <desc>Created with Sketch.</desc>
    <g id="Symbols" stroke="none" stroke-width="1" fill="none" fill-rule="evenodd">
        <g id="Icons/CMS" transform="translate(-17.000000, -94.000000)" fill-rule="nonzero">
            <g id="shopify" transform="translate(17.000000, 94.000000)">
                <path d="M67.1320905,17.202063 C67.0718823,16.7638028 66.6882296,16.5215695 66.3710861,16.4949659 C66.0546425,16.4683622 59.3561226,15.9719941 59.3561226,15.9719941 C59.3561226,15.9719941 54.7039834,11.3534596 54.1936132,10.8423894 C53.682543,10.3313192 52.6849059,10.4867405 52.2977529,10.6008562 C52.2403449,10.6176585 51.2812133,10.9137992 49.6940951,11.4045666 C48.1398817,6.93305239 45.397605,2.82348786 40.5725422,2.82348786 C40.439524,2.82348786 40.3023049,2.82908863 40.1650861,2.83678969 C38.7928977,1.02214041 37.0930641,0.233832121 35.6249624,0.233832121 C24.3856186,0.233832121 19.0158809,14.2840622 17.3321497,21.4243431 C12.9649497,22.7776289 9.8621235,23.7395611 9.46586906,23.8641782 C7.02813421,24.6286832 6.95112361,24.7056938 6.63117965,27.0027093 C6.38964649,28.7417482 0.0110702707,78.0705244 0.0110702707,78.0705244 L49.7143979,87.3832037 L76.6456974,81.5570033 C76.6456974,81.5570033 67.1915988,17.6403232 67.1320905,17.202063 L67.1320905,17.202063 Z M46.9469179,12.2544834 C45.6986463,12.6409365 44.2795515,13.0798968 42.74144,13.5559622 C42.7428404,13.2598215 42.7442405,12.9678814 42.7442405,12.6493376 C42.7442405,9.86995581 42.3584876,7.63244847 41.7396026,5.85840476 C44.2256439,6.17064766 45.8813715,8.99903619 46.9469179,12.2544834 L46.9469179,12.2544834 Z M38.6556789,6.40938043 C39.3466738,8.14141838 39.7961356,10.6267598 39.7961356,13.9809205 C39.7961356,14.1524441 39.7947352,14.3092657 39.7933351,14.4681875 C37.0580595,15.3153038 34.0861511,16.2352302 31.1072418,17.157957 C32.7797716,10.7030703 35.9148023,7.58554203 38.6556789,6.40938043 L38.6556789,6.40938043 Z M35.3162201,3.24844624 C35.8013867,3.24844624 36.2900537,3.41296883 36.7577181,3.73501308 C33.1557232,5.42994592 29.2946929,9.69913236 27.6641689,18.2242034 C25.2810416,18.9621048 22.9518216,19.6832039 20.7983258,20.3503955 C22.7081882,13.8479023 27.2434112,3.24844624 35.3162201,3.24844624 L35.3162201,3.24844624 Z" id="Shape" fill="#95BF46"></path>
                <path d="M66.3710861,16.4949659 C66.0546425,16.4683622 59.3561226,15.9719941 59.3561226,15.9719941 C59.3561226,15.9719941 54.7039834,11.3534596 54.1936132,10.8423894 C54.002487,10.6519632 53.7448515,10.5546499 53.4753147,10.5126441 L49.7171984,87.3825038 L76.6456974,81.5570033 C76.6456974,81.5570033 67.1915988,17.6403232 67.1320905,17.202063 C67.0718823,16.7638028 66.6882296,16.5215695 66.3710861,16.4949659" id="Path" fill="#5E8E3E"></path>
                <path d="M40.5725422,31.3755099 L37.2519861,41.2531669 C37.2519861,41.2531669 34.3423865,39.7003537 30.7760964,39.7003537 C25.5477782,39.7003537 25.2845421,42.9817043 25.2845421,43.8085178 C25.2845421,48.3199375 37.0447575,50.0484752 37.0447575,60.6157266 C37.0447575,68.9293686 31.7716333,74.2830042 24.6614565,74.2830042 C16.1293844,74.2830042 11.7663851,68.9727747 11.7663851,68.9727747 L14.0507989,61.4250378 C14.0507989,61.4250378 18.535615,65.2755668 22.3203349,65.2755668 C24.7930745,65.2755668 25.7991128,63.3285994 25.7991128,61.9060039 C25.7991128,56.0209954 16.1510874,55.7584594 16.1510874,46.0887312 C16.1510874,37.9501131 21.9926899,30.0740313 33.7844095,30.0740313 C38.3280339,30.0740313 40.5725422,31.3755099 40.5725422,31.3755099" id="Path" fill="#FFFFFF"></path>
            </g>
        </g>
    </g>
</svg>