<?xml version="1.0" encoding="UTF-8"?>
<svg width="77px" height="77px" viewBox="0 0 77 77" version="1.1" xmlns="http://www.w3.org/2000/svg" xmlns:xlink="http://www.w3.org/1999/xlink">
    <!-- Generator: Sketch 60 (88103) - https://sketch.com -->
    <title>wordpress-icon</title>
    <desc>Created with Sketch.</desc>
    <g id="Symbols" stroke="none" stroke-width="1" fill="none" fill-rule="evenodd">
        <g id="Icons/CMS" transform="translate(-205.000000, -250.000000)" fill="#464342" fill-rule="nonzero">
            <g id="wordpress-icon" transform="translate(205.000000, 250.000000)">
                <path d="M5.43719025,38.2501464 C5.43719025,51.2387121 12.9854439,62.4633756 23.9310049,67.7825562 L8.27816586,24.8956878 C6.4574439,28.9767024 5.43719025,33.4929171 5.43719025,38.2501464 L5.43719025,38.2501464 Z M60.4035123,36.5942634 C60.4035123,32.5388487 58.9468098,29.7303415 57.6974049,27.5443512 C56.0340294,24.8413658 54.4749267,22.5523512 54.4749267,19.8493658 C54.4749267,16.8329366 56.7626928,14.0250537 59.9851707,14.0250537 C60.1306536,14.0250537 60.268644,14.043161 60.4103805,14.051278 C54.5723316,8.70275121 46.7943024,5.43719025 38.251395,5.43719025 C26.7875903,5.43719025 16.7018146,11.3189463 10.8344195,20.2277463 C11.6042927,20.2508488 12.3298342,20.2670829 12.9461073,20.2670829 C16.3783805,20.2670829 21.6913171,19.8506146 21.6913171,19.8506146 C23.4602146,19.7463415 23.668761,22.3444293 21.9017366,22.5536 C21.9017366,22.5536 20.1240976,22.7627707 18.1460293,22.8664195 L30.0956097,58.4098341 L37.276722,36.8727414 L32.1642147,22.8651707 C30.3971901,22.7615219 28.7232,22.5523512 28.7232,22.5523512 C26.9549268,22.4487024 27.1622244,19.7450927 28.9304976,19.8493658 C28.9304976,19.8493658 34.3495806,20.2658341 37.5739317,20.2658341 C41.0055804,20.2658341 46.3191414,19.8493658 46.3191414,19.8493658 C48.0892878,19.7450927 48.2972097,22.3431805 46.5295611,22.5523512 C46.5295611,22.5523512 44.7481755,22.7615219 42.7738536,22.8651707 L54.6322731,58.1394732 L57.9053268,47.2020294 C59.3239416,42.6633366 60.4035123,39.403395 60.4035123,36.5942634 L60.4035123,36.5942634 Z M38.827083,41.1204684 L28.9816975,69.729405 C31.9213269,70.593561 35.030166,71.0662245 38.251395,71.0662245 C42.0726633,71.0662245 45.7372098,70.4056194 49.1482536,69.206166 C49.0602147,69.0656781 48.9802926,68.9164488 48.9147318,68.7541074 L38.827083,41.1204684 L38.827083,41.1204684 Z M67.0445268,22.5067707 C67.185639,23.552 67.2655611,24.6740293 67.2655611,25.8809756 C67.2655611,29.2108488 66.6436683,32.9540682 64.7704977,37.6344975 L54.7471611,66.614322 C64.502634,60.9255024 71.0643515,50.3564487 71.0643515,38.2507707 C71.0649756,32.5457172 69.6076488,27.1809561 67.0445268,22.5067707 L67.0445268,22.5067707 Z M38.251395,0 C17.1601171,0 0,17.1588683 0,38.2501464 C0,59.3439219 17.1601171,76.502166 38.251395,76.502166 C59.3420487,76.502166 76.5046635,59.3439219 76.5046635,38.2501464 C76.5046635,17.1588683 59.3420487,0 38.251395,0 L38.251395,0 Z M38.251395,74.7488781 C18.1272976,74.7488781 1.75391219,58.3754928 1.75391219,38.2501464 C1.75391219,18.1260488 18.1266732,1.75391219 38.251395,1.75391219 C58.3748682,1.75391219 74.7470049,18.1260488 74.7470049,38.2501464 C74.7470049,58.3754928 58.3748682,74.7488781 38.251395,74.7488781 L38.251395,74.7488781 Z" id="Shape"></path>
            </g>
        </g>
    </g>
</svg>